<svg xmlns="http://www.w3.org/2000/svg" viewBox="0 0 640 420" role="img" aria-label="Two dogs walking illustration">
  <rect width="640" height="420" rx="36" fill="#f7f0e6"/>
  <ellipse cx="496" cy="124" rx="116" ry="80" fill="#dde4d0"/>
  <path d="M0 319c87-39 180-44 287-15 129 34 227 34 353-10v126H0Z" fill="#c9a441"/>
  <path d="M130 275c0-39 21-72 60-72s57 35 57 76v42h-22l-13-38h-48l-12 38h-22Z" fill="#2c5a3b"/>
  <circle cx="175" cy="191" r="28" fill="#2c5a3b"/>
  <path d="M154 178c-17-26-12-48 4-61 15 9 29 25 34 46" fill="#2c5a3b"/>
  <circle cx="185" cy="188" r="4" fill="#f7f0e6"/>
  <path d="M252 279c0-29 22-52 50-52s53 19 53 56v38h-20l-7-38h-43l-10 38h-23Z" fill="#6d482a"/>
  <circle cx="291" cy="216" r="24" fill="#6d482a"/>
  <path d="M273 203c-17-28-12-49 1-63 17 10 26 25 31 45" fill="#6d482a"/>
  <circle cx="301" cy="214" r="3.8" fill="#f7f0e6"/>
  <path d="M355 198c40-13 73-9 102 11" fill="none" stroke="#2c5a3b" stroke-width="8" stroke-linecap="round"/>
  <path d="M433 184c18 1 36-6 48-18" fill="none" stroke="#2c5a3b" stroke-width="8" stroke-linecap="round"/>
  <path d="M72 133c19 10 31 26 38 49 7 20 8 43 6 66" fill="none" stroke="#2c5a3b" stroke-width="8" stroke-linecap="round"/>
</svg>
